<?xml version="1.0" standalone="no"?>
<!DOCTYPE svg PUBLIC "-//W3C//DTD SVG 20010904//EN"
 "http://www.w3.org/TR/2001/REC-SVG-20010904/DTD/svg10.dtd">
<svg version="1.0" xmlns="http://www.w3.org/2000/svg"
 width="300.000000pt" height="169.000000pt" viewBox="0 0 300.000000 169.000000"
 preserveAspectRatio="xMidYMid meet">
<metadata>
Created by potrace 1.10, written by Peter Selinger 2001-2011
</metadata>
<g transform="translate(0.000000,169.000000) scale(0.100000,-0.100000)"
fill="#000000" stroke="none">
<path d="M1760 992 l0 -102 -32 0 c-18 -1 -44 -7 -57 -14 -21 -12 -27 -12 -39
0 -7 8 -33 14 -58 14 -25 0 -43 4 -40 9 12 19 -81 -12 -105 -35 l-26 -25 -22
36 c-11 20 -24 47 -27 61 -8 29 -32 44 -73 44 -25 0 -36 -7 -51 -32 -16 -27
-57 -132 -76 -197 -4 -11 -9 -10 -27 5 -12 10 -16 12 -9 4 6 -8 12 -26 12 -40
0 -63 66 -85 114 -36 32 31 56 33 87 6 l24 -20 -52 -51 c-29 -28 -53 -51 -53
-52 0 -1 40 -2 90 -2 l90 0 0 28 c0 31 5 33 26 12 21 -20 113 -20 142 1 12 8
29 28 37 45 15 29 48 39 60 19 3 -5 -14 -31 -38 -57 l-45 -48 444 -3 444 -3 0
225 0 226 -259 0 -259 0 -65 -67 c-36 -37 -64 -69 -62 -71 2 -3 33 -4 69 -4
91 1 100 -8 104 -107 l4 -81 -31 0 -31 0 0 59 c0 61 -16 89 -45 77 -11 -4 -15
-22 -15 -71 l0 -65 -30 0 -30 0 0 91 c0 68 -3 90 -12 87 -7 -3 -18 1 -25 8 -7
7 -18 14 -25 16 -9 3 -13 33 -14 102 -1 53 -4 99 -8 103 -3 3 -6 -39 -6 -95z
m698 -17 c7 -3 12 -24 12 -55 0 -51 0 -51 -22 -36 -31 22 -60 20 -93 -5 -16
-13 -30 -18 -33 -12 -15 22 -51 30 -136 31 -65 2 -96 -2 -112 -13 -29 -19 -42
-19 -60 0 -13 13 -49 20 -76 16 -15 -2 -8 18 17 48 14 16 36 31 48 33 32 4
440 -2 455 -7z m-1087 -147 c30 -73 56 -136 57 -140 2 -4 -13 -8 -33 -8 -31 0
-37 4 -46 30 -10 28 -15 30 -59 30 -44 0 -49 -2 -59 -30 -9 -26 -15 -30 -46
-30 -20 0 -35 4 -33 8 2 4 26 67 53 140 49 130 50 132 81 132 31 0 33 -2 85
-132z m252 -67 c-2 -100 -4 -107 -28 -128 -29 -26 -82 -30 -134 -12 -36 13
-37 13 -12 38 12 12 23 16 32 10 20 -13 63 -11 77 3 21 21 13 25 -36 20 -61
-5 -91 17 -99 74 -4 33 -1 45 21 71 26 31 29 32 104 31 l78 0 -3 -107z m177
91 c13 -11 23 -33 27 -61 l6 -43 -67 4 c-70 3 -83 -5 -40 -24 20 -9 30 -9 46
1 17 11 23 10 36 -3 15 -14 14 -17 -3 -31 -11 -8 -39 -15 -63 -15 -58 0 -102
41 -102 95 0 77 100 125 160 77z m403 4 c21 -16 22 -30 2 -46 -12 -10 -19 -10
-27 -2 -15 15 -51 15 -66 0 -28 -28 -7 -78 33 -78 12 0 26 5 32 11 12 12 53
-4 53 -20 0 -18 -51 -41 -88 -41 -75 0 -117 64 -88 135 8 18 22 38 33 44 25
15 94 13 116 -3z m103 -33 c9 -27 20 -52 24 -56 4 -4 16 16 26 45 18 50 21 53
55 56 l37 3 -39 -83 c-77 -166 -82 -173 -112 -176 -16 -2 -35 -1 -43 2 -20 8
-2 51 22 51 30 0 27 26 -15 118 l-40 87 34 0 c31 0 35 -4 51 -47z m169 -103
c5 -118 -1 -130 -64 -130 -26 0 -50 2 -52 5 -3 2 19 54 49 115 30 61 56 109
59 107 2 -2 5 -46 8 -97z m-511 -55 c23 -18 58 -19 73 -4 8 8 24 6 58 -5 36
-13 55 -14 83 -6 20 5 37 8 38 7 0 -1 4 -17 7 -34 l7 -33 -275 0 c-162 0 -275
4 -275 9 0 16 52 51 76 51 13 0 34 5 48 11 20 9 29 9 40 0 16 -14 71 -7 81 10
8 12 17 11 39 -6z m-559 -50 c0 -28 -3 -30 -39 -33 -55 -5 -68 13 -32 44 39
34 71 29 71 -11z"/>
<path d="M1273 825 c-11 -34 -11 -35 18 -35 27 0 28 1 17 28 -19 44 -24 45
-35 7z"/>
<path d="M1488 795 c-10 -22 -9 -29 9 -46 38 -38 89 3 63 51 -16 29 -58 26
-72 -5z"/>
<path d="M1712 818 c-20 -20 -14 -28 23 -28 19 0 35 4 35 8 0 12 -22 32 -35
32 -6 0 -16 -5 -23 -12z"/>
<path d="M479 943 c-1 -130 1 -377 4 -377 1 -1 130 1 287 4 l285 6 -277 2
c-260 2 -277 3 -283 21 -9 28 5 51 30 51 12 0 34 11 47 25 21 20 30 24 49 16
14 -5 34 -5 48 0 19 8 28 5 46 -15 21 -23 30 -25 89 -22 53 2 71 8 91 26 l25
23 23 -21 c30 -28 73 -37 103 -22 33 18 30 41 -11 111 -19 33 -35 64 -35 70 0
16 23 10 49 -13 24 -21 24 -21 -1 8 -34 37 -34 38 -3 72 30 32 31 48 6 62 -32
16 -73 12 -98 -12 -25 -24 -36 -19 -57 24 -11 23 -13 23 -214 26 l-202 2 -1
-67z m231 42 c0 -2 -14 -24 -31 -49 l-32 -44 -33 44 c-19 24 -34 46 -34 49 0
3 29 5 65 5 36 0 65 -2 65 -5z m-104 -101 l41 -76 40 74 c35 65 43 73 71 76
l32 3 0 -140 0 -141 -30 0 -30 0 0 83 -1 82 -34 -67 c-43 -82 -60 -82 -101 4
-16 33 -31 61 -34 63 -3 2 -3 -35 -1 -82 l3 -84 -33 3 c-19 2 -33 6 -31 11 1
4 2 66 2 137 l0 130 33 0 c30 0 35 -5 73 -76z m272 15 l-4 -62 54 62 c49 55
57 61 94 61 l40 0 -56 -61 c-62 -69 -63 -58 9 -156 l46 -63 -40 0 c-36 0 -43
4 -73 47 -18 26 -36 52 -40 58 -13 17 -28 -16 -28 -63 0 -42 -1 -43 -31 -40
l-31 3 -1 138 -2 137 34 0 33 0 -4 -61z"/>
</g>
</svg>
